# This file uses centimeters as units for non-parametric coordinates.

mtllib Vein.mtl
g default
v 3.590563 0.810813 5.000000
v 0.078436 0.030942 5.000000
v -3.447254 0.747007 5.000000
v -6.376883 2.835192 5.000000
v -8.203890 5.934430 5.000000
v -9.183655 9.322062 5.000000
v 9.120130 9.286245 5.000000
v 8.252367 6.083622 5.000000
v 6.481850 2.951767 5.000000
v 3.590563 0.810813 -5.000000
v 0.078436 0.030942 -5.000000
v -3.447254 0.747007 -5.000000
v -6.376883 2.835192 -5.000000
v -8.203890 5.934431 -5.000000
v -9.183655 9.322062 -5.000000
v 9.120130 9.286245 -5.000000
v 8.252367 6.083622 -5.000000
v 6.481850 2.951767 -5.000000
vt 0.895376 0.562632
vt 0.895376 0.006431
vt 0.995289 0.006431
vt 0.995289 0.562632
vt 0.753853 0.562632
vt 0.753853 0.006431
vt 0.567026 0.562632
vt 0.567026 0.006431
vt 0.009124 0.562632
vt 0.009124 0.006431
vt 0.011276 0.006431
vt 0.011276 0.562632
vt 0.063028 0.006431
vt 0.063028 0.562632
vt 0.188925 0.006431
vt 0.188925 0.562632
vt 0.367200 0.006431
vt 0.367200 0.562632
vn -0.415002 0.909821 -0.000000
vn -0.415002 0.909821 -0.000000
vn -0.009066 0.999959 0.000000
vn -0.009066 0.999959 0.000000
vn 0.398438 0.917195 0.000000
vn 0.398438 0.917195 0.000000
vn 0.737048 0.675840 0.000000
vn 0.737048 0.675840 0.000000
vn 0.917773 0.397107 0.000000
vn 0.917773 0.397107 0.000000
vn 0.960630 0.277832 0.000000
vn 0.960630 0.277832 0.000000
vn -0.965197 0.261524 0.000000
vn -0.965197 0.261524 0.000000
vn -0.923133 0.384481 0.000000
vn -0.923133 0.384481 0.000000
vn -0.749180 0.662366 -0.000000
vn -0.749180 0.662366 -0.000000
s 1
g pCylinder1
usemtl initialShadingGroup
f 1/16/1 10/15/2 11/17/3 2/18/4
f 2/18/4 11/17/3 12/8/5 3/7/6
f 3/7/6 12/8/5 13/6/7 4/5/8
f 4/5/8 13/6/7 14/2/9 5/1/10
f 5/1/10 14/2/9 15/3/11 6/4/12
f 7/9/13 16/10/14 17/11/15 8/12/16
f 8/12/16 17/11/15 18/13/17 9/14/18
f 9/14/18 18/13/17 10/15/2 1/16/1
