# This file uses centimeters as units for non-parametric coordinates.

mtllib Needle.mtl
g default
v 1.848236 -8.277907 -0.000000
v 1.757777 -8.277907 -0.480735
v 1.495254 -8.277907 -0.914413
v 1.086366 -8.277907 -1.258581
v 0.571136 -8.277907 -1.479551
v 0.000000 -8.277907 -1.555692
v -0.571136 -8.277907 -1.479551
v -1.086366 -8.277907 -1.258582
v -1.495254 -8.277907 -0.914413
v -1.757777 -8.277907 -0.480735
v -1.848236 -8.277907 -0.000000
v -1.757777 -8.277907 0.480735
v -1.495255 -8.277907 0.914413
v -1.086366 -8.277907 1.258582
v -0.571136 -8.277907 1.479552
v -0.000000 -8.277907 1.555693
v 0.571136 -8.277907 1.479552
v 1.086366 -8.277907 1.258582
v 1.495255 -8.277907 0.914413
v 1.757777 -8.277907 0.480735
v 1.457434 8.277907 -0.000000
v 1.386102 9.359796 -0.387545
v 1.179089 10.335786 -0.737154
v 0.856658 11.110320 -1.014605
v 0.450372 11.607613 -1.192740
v -0.000000 11.778975 -1.254121
v -0.450372 11.607613 -1.192740
v -0.856658 11.110320 -1.014605
v -1.179089 10.335786 -0.737154
v -1.386102 9.359796 -0.387545
v -1.457435 8.277907 -0.000000
v -1.386102 7.196019 0.387545
v -1.179090 6.220033 0.737154
v -0.856659 5.445496 1.014606
v -0.450372 4.948197 1.192740
v -0.000000 4.776844 1.254121
v 0.450372 4.948197 1.192740
v 0.856659 5.445496 1.014606
v 1.179089 6.220031 0.737154
v 1.386103 7.196019 0.387545
v 2.060884 8.277907 0.000000
v 1.960018 9.807748 -0.548007
v 1.667291 11.187832 -1.042372
v 1.211357 12.283081 -1.434702
v 0.636848 12.986284 -1.686593
v -0.000000 13.228576 -1.773389
v -0.636848 12.986284 -1.686593
v -1.211358 12.283081 -1.434702
v -1.667291 11.187832 -1.042372
v -1.960018 9.807748 -0.548007
v -2.060885 8.277907 0.000000
v -1.960018 6.748068 0.548008
v -1.667291 5.367983 1.042372
v -1.211358 4.272733 1.434702
v -0.636848 3.569530 1.686593
v 0.000000 3.327240 1.773390
v 0.636849 3.569530 1.686593
v 1.211358 4.272733 1.434702
v 1.667291 5.367983 1.042372
v 1.960018 6.748068 0.548008
v 1.961845 -8.277907 0.000000
v 1.865825 -8.277907 -0.510286
v 1.587166 -8.277907 -0.970621
v 1.153144 -8.277907 -1.335945
v 0.606243 -8.277907 -1.570498
v -0.000000 -8.277907 -1.651319
v -0.606243 -8.277907 -1.570498
v -1.153144 -8.277907 -1.335945
v -1.587166 -8.277907 -0.970621
v -1.865826 -8.277907 -0.510286
v -1.961845 -8.277907 0.000000
v -1.865826 -8.277907 0.510286
v -1.587166 -8.277907 0.970621
v -1.153144 -8.277907 1.335945
v -0.606243 -8.277907 1.570498
v 0.000000 -8.277907 1.651319
v 0.606244 -8.277907 1.570498
v 1.153144 -8.277907 1.335945
v 1.587166 -8.277907 0.970621
v 1.865826 -8.277907 0.510286
vt 0.000000 1.000000
vt 0.050000 1.000000
vt 0.100000 1.000000
vt 0.150000 1.000000
vt 0.200000 1.000000
vt 0.250000 1.000000
vt 0.300000 1.000000
vt 0.350000 1.000000
vt 0.400000 1.000000
vt 0.450000 1.000000
vt 0.500000 1.000000
vt 0.550000 1.000000
vt 0.600000 1.000000
vt 0.650000 1.000000
vt 0.700000 1.000000
vt 0.750000 1.000000
vt 0.800000 1.000000
vt 0.850000 1.000000
vt 0.900000 1.000000
vt 0.950000 1.000000
vt 1.000000 1.000000
vt 0.000000 0.750000
vt 0.050000 0.750000
vt 0.100000 0.750000
vt 0.150000 0.750000
vt 0.200000 0.750000
vt 0.250000 0.750000
vt 0.300000 0.750000
vt 0.350000 0.750000
vt 0.400000 0.750000
vt 0.450000 0.750000
vt 0.500000 0.750000
vt 0.550000 0.750000
vt 0.600000 0.750000
vt 0.650000 0.750000
vt 0.700000 0.750000
vt 0.750000 0.750000
vt 0.800000 0.750000
vt 0.850000 0.750000
vt 0.900000 0.750000
vt 0.950000 0.750000
vt 1.000000 0.750000
vt 0.000000 0.500000
vt 0.050000 0.500000
vt 0.100000 0.500000
vt 0.150000 0.500000
vt 0.200000 0.500000
vt 0.250000 0.500000
vt 0.300000 0.500000
vt 0.350000 0.500000
vt 0.400000 0.500000
vt 0.450000 0.500000
vt 0.500000 0.500000
vt 0.550000 0.500000
vt 0.600000 0.500000
vt 0.650000 0.500000
vt 0.700000 0.500000
vt 0.750000 0.500000
vt 0.800000 0.500000
vt 0.850000 0.500000
vt 0.900000 0.500000
vt 0.950000 0.500000
vt 1.000000 0.500000
vt 0.000000 0.250000
vt 0.050000 0.250000
vt 0.100000 0.250000
vt 0.150000 0.250000
vt 0.200000 0.250000
vt 0.250000 0.250000
vt 0.300000 0.250000
vt 0.350000 0.250000
vt 0.400000 0.250000
vt 0.450000 0.250000
vt 0.500000 0.250000
vt 0.550000 0.250000
vt 0.600000 0.250000
vt 0.650000 0.250000
vt 0.700000 0.250000
vt 0.750000 0.250000
vt 0.800000 0.250000
vt 0.850000 0.250000
vt 0.900000 0.250000
vt 0.950000 0.250000
vt 1.000000 0.250000
vt 0.000000 0.000000
vt 0.050000 0.000000
vt 0.100000 0.000000
vt 0.150000 0.000000
vt 0.200000 0.000000
vt 0.250000 0.000000
vt 0.300000 0.000000
vt 0.350000 0.000000
vt 0.400000 0.000000
vt 0.450000 0.000000
vt 0.500000 0.000000
vt 0.550000 0.000000
vt 0.600000 0.000000
vt 0.650000 0.000000
vt 0.700000 0.000000
vt 0.750000 0.000000
vt 0.800000 0.000000
vt 0.850000 0.000000
vt 0.900000 0.000000
vt 0.950000 0.000000
vt 1.000000 0.000000
vn -0.940689 -0.021612 0.338581
vn -0.999468 -0.023539 -0.022591
vn -0.992796 -0.022744 0.117641
vn -0.886235 -0.020536 0.462780
vn -0.769209 -0.019197 0.638709
vn -0.687430 -0.018187 0.726023
vn -0.532805 -0.017043 0.846066
vn -0.448163 -0.016363 0.893802
vn -0.270104 -0.015629 0.962704
vn -0.208653 -0.015376 0.977869
vn -0.000000 -0.015144 0.999885
vn -0.000000 -0.015144 0.999885
vn 0.270104 -0.015629 0.962704
vn 0.208653 -0.015376 0.977869
vn 0.532805 -0.017043 0.846066
vn 0.448163 -0.016363 0.893802
vn 0.769209 -0.019197 0.638709
vn 0.687429 -0.018187 0.726023
vn 0.940689 -0.021612 0.338582
vn 0.886235 -0.020536 0.462780
vn 0.999468 -0.023539 -0.022592
vn 0.992796 -0.022744 0.117640
vn 0.925909 -0.024414 -0.376957
vn 0.967112 -0.024074 -0.253210
vn 0.748723 -0.024309 -0.662437
vn 0.816470 -0.024301 -0.576876
vn 0.515642 -0.023736 -0.856476
vn 0.583243 -0.023828 -0.811948
vn 0.260823 -0.023195 -0.965108
vn 0.303036 -0.023238 -0.952696
vn 0.000000 -0.022983 -0.999736
vn 0.000000 -0.022983 -0.999736
vn -0.260822 -0.023195 -0.965108
vn -0.303036 -0.023238 -0.952696
vn -0.515642 -0.023736 -0.856476
vn -0.583243 -0.023828 -0.811948
vn -0.748723 -0.024309 -0.662437
vn -0.816470 -0.024301 -0.576877
vn -0.925909 -0.024414 -0.376956
vn -0.967112 -0.024074 -0.253208
vn 0.000002 0.337229 0.941423
vn -0.000000 0.337229 0.941423
vn -0.000000 0.337229 0.941423
vn 0.000003 0.337229 0.941423
vn 0.000004 0.337230 0.941422
vn 0.000002 0.337230 0.941422
vn 0.000002 0.337229 0.941423
vn 0.000003 0.337228 0.941423
vn 0.000002 0.337228 0.941423
vn -0.000000 0.337229 0.941423
vn -0.000000 0.337229 0.941423
vn -0.000000 0.337229 0.941423
vn -0.000002 0.337228 0.941423
vn 0.000000 0.337229 0.941423
vn -0.000002 0.337229 0.941423
vn -0.000003 0.337228 0.941423
vn -0.000003 0.337230 0.941423
vn -0.000002 0.337230 0.941422
vn -0.000002 0.337229 0.941423
vn -0.000003 0.337229 0.941423
vn 0.000000 0.337229 0.941423
vn 0.000000 0.337229 0.941423
vn 0.000002 0.337229 0.941423
vn 0.000003 0.337230 0.941423
vn 0.000003 0.337230 0.941422
vn 0.000001 0.337230 0.941422
vn 0.000002 0.337229 0.941423
vn 0.000004 0.337228 0.941423
vn 0.000002 0.337228 0.941423
vn -0.000002 0.337229 0.941423
vn -0.000000 0.337229 0.941423
vn -0.000000 0.337229 0.941423
vn -0.000002 0.337228 0.941423
vn 0.000002 0.337229 0.941423
vn -0.000002 0.337229 0.941423
vn -0.000004 0.337228 0.941423
vn -0.000003 0.337230 0.941422
vn -0.000001 0.337230 0.941422
vn -0.000002 0.337229 0.941423
vn -0.000003 0.337230 0.941422
vn 0.872414 -0.005533 -0.488737
vn 0.987977 -0.005775 -0.154496
vn 0.999837 -0.006047 -0.017029
vn 0.928943 -0.005665 -0.370180
vn 0.672665 -0.005514 -0.739926
vn 0.753359 -0.005556 -0.657586
vn 0.437361 -0.005578 -0.899269
vn 0.519731 -0.005583 -0.854312
vn 0.203372 -0.005640 -0.979085
vn 0.263071 -0.005639 -0.964760
vn 0.000000 -0.005664 -0.999984
vn -0.000000 -0.005664 -0.999984
vn -0.203372 -0.005640 -0.979085
vn -0.263071 -0.005639 -0.964760
vn -0.437361 -0.005578 -0.899269
vn -0.519731 -0.005583 -0.854312
vn -0.672665 -0.005514 -0.739927
vn -0.753359 -0.005556 -0.657586
vn -0.872414 -0.005533 -0.488737
vn -0.928943 -0.005665 -0.370180
vn -0.987977 -0.005775 -0.154496
vn -0.999837 -0.006047 -0.017029
vn -0.976740 -0.006384 0.214331
vn -0.940363 -0.006796 0.340104
vn -0.837158 -0.007405 0.546910
vn -0.770817 -0.007869 0.637008
vn -0.605468 -0.008685 0.795822
vn -0.536191 -0.009044 0.844049
vn -0.317209 -0.009846 0.948305
vn -0.272846 -0.009976 0.962006
vn -0.000000 -0.010333 0.999947
vn -0.000000 -0.010333 0.999947
vn 0.317209 -0.009846 0.948305
vn 0.272846 -0.009976 0.962006
vn 0.605468 -0.008685 0.795822
vn 0.536191 -0.009044 0.844049
vn 0.837158 -0.007405 0.546911
vn 0.770817 -0.007869 0.637009
vn 0.976741 -0.006384 0.214329
vn 0.940363 -0.006796 0.340104
vn 0.000000 -1.000000 -0.000001
vn 0.000000 -1.000000 -0.000001
vn 0.000000 -1.000000 -0.000001
vn 0.000000 -1.000000 -0.000001
vn 0.000000 -1.000000 -0.000001
vn 0.000000 -1.000000 -0.000001
vn 0.000000 -1.000000 -0.000000
vn 0.000000 -1.000000 -0.000001
vn 0.000000 -1.000000 -0.000001
vn 0.000000 -1.000000 -0.000001
vn 0.000000 -1.000000 0.000000
vn 0.000000 -1.000000 0.000000
vn 0.000000 -1.000000 0.000000
vn 0.000000 -1.000000 0.000000
vn 0.000000 -1.000000 0.000002
vn 0.000000 -1.000000 0.000002
vn 0.000000 -1.000000 0.000002
vn 0.000000 -1.000000 0.000003
vn 0.000000 -1.000000 0.000001
vn 0.000000 -1.000000 0.000001
vn 0.000000 -1.000000 0.000001
vn 0.000000 -1.000000 0.000001
vn 0.000000 -1.000000 -0.000000
vn 0.000000 -1.000000 -0.000001
vn 0.000000 -1.000000 -0.000000
vn 0.000000 -1.000000 0.000000
vn 0.000000 -1.000000 0.000001
vn 0.000000 -1.000000 0.000001
vn 0.000000 -1.000000 0.000001
vn 0.000000 -1.000000 0.000001
vn 0.000000 -1.000000 0.000001
vn 0.000000 -1.000000 0.000001
vn 0.000000 -1.000000 -0.000000
vn 0.000000 -1.000000 -0.000000
vn 0.000000 -1.000000 -0.000003
vn 0.000000 -1.000000 -0.000002
vn 0.000000 -1.000000 -0.000004
vn 0.000000 -1.000000 -0.000004
vn 0.000000 -1.000000 -0.000002
vn 0.000000 -1.000000 -0.000002
s 1
g Vein1:pPipe1
usemtl initialShadingGroup
f 2/2/1 1/1/2 21/22/3 22/23/4
f 3/3/5 2/2/1 22/23/4 23/24/6
f 4/4/7 3/3/5 23/24/6 24/25/8
f 5/5/9 4/4/7 24/25/8 25/26/10
f 6/6/11 5/5/9 25/26/10 26/27/12
f 7/7/13 6/6/11 26/27/12 27/28/14
f 8/8/15 7/7/13 27/28/14 28/29/16
f 9/9/17 8/8/15 28/29/16 29/30/18
f 10/10/19 9/9/17 29/30/18 30/31/20
f 11/11/21 10/10/19 30/31/20 31/32/22
f 12/12/23 11/11/21 31/32/22 32/33/24
f 13/13/25 12/12/23 32/33/24 33/34/26
f 14/14/27 13/13/25 33/34/26 34/35/28
f 15/15/29 14/14/27 34/35/28 35/36/30
f 16/16/31 15/15/29 35/36/30 36/37/32
f 17/17/33 16/16/31 36/37/32 37/38/34
f 18/18/35 17/17/33 37/38/34 38/39/36
f 19/19/37 18/18/35 38/39/36 39/40/38
f 20/20/39 19/19/37 39/40/38 40/41/40
f 1/21/2 20/20/39 40/41/40 21/42/3
s 2
f 22/23/41 21/22/42 41/43/43 42/44/44
f 23/24/45 22/23/41 42/44/44 43/45/46
f 24/25/47 23/24/45 43/45/46 44/46/48
f 25/26/49 24/25/47 44/46/48 45/47/50
f 26/27/51 25/26/49 45/47/50 46/48/52
f 27/28/53 26/27/51 46/48/52 47/49/54
f 28/29/55 27/28/53 47/49/54 48/50/56
f 29/30/57 28/29/55 48/50/56 49/51/58
f 30/31/59 29/30/57 49/51/58 50/52/60
f 31/32/61 30/31/59 50/52/60 51/53/62
f 32/33/63 31/32/61 51/53/62 52/54/64
f 33/34/65 32/33/63 52/54/64 53/55/66
f 34/35/67 33/34/65 53/55/66 54/56/68
f 35/36/69 34/35/67 54/56/68 55/57/70
f 36/37/71 35/36/69 55/57/70 56/58/72
f 37/38/73 36/37/71 56/58/72 57/59/74
f 38/39/75 37/38/73 57/59/74 58/60/76
f 39/40/77 38/39/75 58/60/76 59/61/78
f 40/41/79 39/40/77 59/61/78 60/62/80
f 21/42/42 40/41/79 60/62/80 41/63/43
s 3
f 42/44/81 41/43/82 61/64/83 62/65/84
f 43/45/85 42/44/81 62/65/84 63/66/86
f 44/46/87 43/45/85 63/66/86 64/67/88
f 45/47/89 44/46/87 64/67/88 65/68/90
f 46/48/91 45/47/89 65/68/90 66/69/92
f 47/49/93 46/48/91 66/69/92 67/70/94
f 48/50/95 47/49/93 67/70/94 68/71/96
f 49/51/97 48/50/95 68/71/96 69/72/98
f 50/52/99 49/51/97 69/72/98 70/73/100
f 51/53/101 50/52/99 70/73/100 71/74/102
f 52/54/103 51/53/101 71/74/102 72/75/104
f 53/55/105 52/54/103 72/75/104 73/76/106
f 54/56/107 53/55/105 73/76/106 74/77/108
f 55/57/109 54/56/107 74/77/108 75/78/110
f 56/58/111 55/57/109 75/78/110 76/79/112
f 57/59/113 56/58/111 76/79/112 77/80/114
f 58/60/115 57/59/113 77/80/114 78/81/116
f 59/61/117 58/60/115 78/81/116 79/82/118
f 60/62/119 59/61/117 79/82/118 80/83/120
f 41/63/82 60/62/119 80/83/120 61/84/83
s 4
f 62/65/121 61/64/122 1/85/123 2/86/124
f 63/66/125 62/65/121 2/86/124 3/87/126
f 64/67/127 63/66/125 3/87/126 4/88/128
f 65/68/129 64/67/127 4/88/128 5/89/130
f 66/69/131 65/68/129 5/89/130 6/90/132
f 67/70/133 66/69/131 6/90/132 7/91/134
f 68/71/135 67/70/133 7/91/134 8/92/136
f 69/72/137 68/71/135 8/92/136 9/93/138
f 70/73/139 69/72/137 9/93/138 10/94/140
f 71/74/141 70/73/139 10/94/140 11/95/142
f 72/75/143 71/74/141 11/95/142 12/96/144
f 73/76/145 72/75/143 12/96/144 13/97/146
f 74/77/147 73/76/145 13/97/146 14/98/148
f 75/78/149 74/77/147 14/98/148 15/99/150
f 76/79/151 75/78/149 15/99/150 16/100/152
f 77/80/153 76/79/151 16/100/152 17/101/154
f 78/81/155 77/80/153 17/101/154 18/102/156
f 79/82/157 78/81/155 18/102/156 19/103/158
f 80/83/159 79/82/157 19/103/158 20/104/160
f 61/84/122 80/83/159 20/104/160 1/105/123
