# This file uses centimeters as units for non-parametric coordinates.

mtllib Vein.mtl
g default
v -9.657943 9.232441 -6.936263
v -7.813439 3.555645 -6.936263
v -2.984468 0.047193 -6.936262
v 2.984468 0.047194 -6.936263
v 7.813439 3.555646 -6.936263
v 9.657942 9.232443 -6.936263
v -9.657943 9.232441 6.936263
v -7.813439 3.555645 6.936263
v -2.984468 0.047193 6.936263
v 2.984468 0.047194 6.936263
v 7.813439 3.555646 6.936263
v 9.657942 9.232442 6.936263
vt 0.414596 0.005448
vt 0.414583 0.478678
vt 0.210966 0.478673
vt 0.210979 0.005442
vt 0.007348 0.478667
vt 0.007362 0.005436
vt 0.789446 0.002945
vt 0.787356 0.469787
vt 0.586488 0.468888
vt 0.588578 0.002046
vt 0.990314 0.003844
vt 0.988225 0.470686
vt 0.410069 0.995220
vt 0.410069 0.484833
vt 0.629673 0.484833
vt 0.629673 0.995220
vn 0.951057 0.309017 0.000000
vn 0.951057 0.309017 0.000000
vn 0.951057 0.309017 0.000000
vn 0.951057 0.309017 0.000000
vn 0.587785 0.809017 -0.000000
vn 0.587785 0.809017 -0.000000
vn 0.587785 0.809017 -0.000000
vn 0.587785 0.809017 -0.000000
vn -0.000000 1.000000 0.000000
vn -0.000000 1.000000 0.000000
vn -0.000000 1.000000 0.000000
vn -0.000000 1.000000 0.000000
vn -0.587785 0.809017 0.000000
vn -0.587785 0.809017 0.000000
vn -0.587785 0.809017 0.000000
vn -0.587785 0.809017 0.000000
vn -0.951057 0.309017 0.000000
vn -0.951057 0.309017 0.000000
vn -0.951057 0.309017 0.000000
vn -0.951057 0.309017 0.000000
s off
g pCylinder1
usemtl initialShadingGroup
f 1/1/1 7/2/2 8/3/3 2/4/4
f 2/4/5 8/3/6 9/5/7 3/6/8
f 3/13/9 9/14/10 10/15/11 4/16/12
f 4/11/13 10/12/14 11/8/15 5/7/16
f 5/7/17 11/8/18 12/9/19 6/10/20
